<svg width="331" height="176" fill="none" xmlns="http://www.w3.org/2000/svg"><mask id="a" style="mask-type:alpha" maskUnits="userSpaceOnUse" x="0" y="0" width="331" height="176"><path d="M0 8a8 8 0 018-8h315a8 8 0 018 8v167.614H0V8z" fill="#F4F4F4"/></mask><g mask="url(#a)"><path d="M331 121H-1v54h332v-54zM331 61H-1v54h332V61zM331 1H-1v55h332V1z" fill="#F8F8F8"/><path d="M-1 176C34.528 141.59 52.169 68.974 88.432 68.024c45.328-1.186 51.454 41.529 88.206 43.903 29.403 1.898 39.203-28.478 66.155-28.478 26.952 0 30.138 17.799 47.779 36.783 17.641 18.985 34.303 22.149 40.428 21.358" stroke="url(#paint0_linear_604_1458)" stroke-width="1.78"/><path d="M88.432 68.024C52.169 68.974 34.528 141.59-1 176h332v-34.41c-6.125.791-22.787-2.373-40.428-21.358-17.641-18.984-20.827-36.783-47.779-36.783s-36.752 30.376-66.155 28.478c-36.752-2.374-42.878-45.09-88.206-43.903z" fill="url(#paint1_linear_604_1458)" fill-opacity=".1"/><circle cx="90" cy="68" r="4" fill="#E17A88"/><circle cx="180" cy="112" r="4" fill="#B875B0"/><circle cx="244" cy="83" r="4" fill="#9977D4"/></g><defs><linearGradient id="paint0_linear_604_1458" x1="-1" y1="122" x2="331" y2="122" gradientUnits="userSpaceOnUse"><stop stop-color="#FF705C"/><stop offset=".17" stop-color="#EC7172"/><stop offset=".53" stop-color="#BA74AC"/><stop offset="1" stop-color="#7479FF"/></linearGradient><linearGradient id="paint1_linear_604_1458" x1="-1" y1="122" x2="331" y2="122" gradientUnits="userSpaceOnUse"><stop stop-color="#FF705C"/><stop offset=".17" stop-color="#EC7172"/><stop offset=".53" stop-color="#BA74AC"/><stop offset="1" stop-color="#7479FF"/></linearGradient></defs></svg>