<svg width="331" height="176" fill="none" xmlns="http://www.w3.org/2000/svg"><mask id="a" style="mask-type:alpha" maskUnits="userSpaceOnUse" x="0" y="0" width="331" height="176"><path d="M0 8a8 8 0 018-8h315a8 8 0 018 8v168H0V8z" fill="#F4F4F4"/></mask><g mask="url(#a)"><path fill="url(#paint0_linear_616_1644)" d="M0 0h331v176H0z"/><path d="M39 68.456h-1.08l-1.784-1.712a2.91 2.91 0 00-.56-.448.98.98 0 00-.488-.136c-.203 0-.355.07-.456.208-.101.133-.152.328-.152.584 0 .213.04.432.12.656.075.219.197.44.368.664l-1.072.456a2.937 2.937 0 01-.456-.904 3.567 3.567 0 01-.168-1.088c0-.656.141-1.155.424-1.496.283-.347.69-.52 1.224-.52.341 0 .67.08.984.24.31.155.64.413.992.776l1.28 1.312H37.8v-2.536H39v3.944zm.088-6.653c0 .694-.253 1.227-.76 1.6-.512.368-1.235.552-2.168.552-.944 0-1.661-.184-2.152-.552-.49-.373-.736-.907-.736-1.6 0-.698.245-1.232.736-1.6.49-.368 1.205-.552 2.144-.552.939 0 1.664.187 2.176.56.507.368.76.899.76 1.592zm-1.176 0c0-.256-.139-.445-.416-.568-.277-.128-.723-.192-1.336-.192-.619 0-1.059.064-1.32.192-.267.123-.4.312-.4.568 0 .256.133.448.4.576.261.123.699.184 1.312.184.619 0 1.067-.061 1.344-.184.277-.128.416-.32.416-.576zM39 58.678h-1.2v-1.264h-3.216v-.672l1.024 1.8h-1.36l-.888-1.552v-1.048h4.44v-1.176H39v3.912zm0-4.5l-4.864-2.68h.448v2.8H33.36v-4.185h1.104L39 52.57v1.608zM125 68.456h-1.08l-1.784-1.712a2.9 2.9 0 00-.56-.448.98.98 0 00-.488-.136c-.203 0-.355.07-.456.208-.101.133-.152.328-.152.584 0 .213.04.432.12.656.075.219.197.44.368.664l-1.072.456a2.937 2.937 0 01-.456-.904 3.567 3.567 0 01-.168-1.088c0-.656.141-1.155.424-1.496.283-.347.691-.52 1.224-.52.341 0 .669.08.984.24.309.155.64.413.992.776l1.28 1.312h-.376v-2.536h1.2v3.944zm.088-6.653c0 .694-.253 1.227-.76 1.6-.512.368-1.235.552-2.168.552-.944 0-1.661-.184-2.152-.552-.491-.373-.736-.907-.736-1.6 0-.698.245-1.232.736-1.6.491-.368 1.205-.552 2.144-.552.939 0 1.664.187 2.176.56.507.368.76.899.76 1.592zm-1.176 0c0-.256-.139-.445-.416-.568-.277-.128-.723-.192-1.336-.192-.619 0-1.059.064-1.32.192-.267.123-.4.312-.4.568 0 .256.133.448.4.576.261.123.699.184 1.312.184.619 0 1.067-.061 1.344-.184.277-.128.416-.32.416-.576zM125 58.678h-1.2v-1.264h-3.216v-.672l1.024 1.8h-1.36l-.888-1.552v-1.048h4.44v-1.176h1.2v3.912zm.088-6.469c0 .683-.144 1.222-.432 1.616-.288.39-.688.584-1.2.584-.405 0-.739-.12-1-.36a1.403 1.403 0 01-.464-.912h.232c-.069.331-.229.6-.48.808a1.424 1.424 0 01-.928.312c-.48 0-.856-.184-1.128-.552-.277-.368-.416-.866-.416-1.496 0-.634.139-1.136.416-1.504.272-.368.648-.552 1.128-.552.368 0 .68.102.936.304.256.203.411.467.464.792h-.224c.053-.368.213-.666.48-.896.261-.229.589-.344.984-.344.512 0 .912.195 1.2.584.288.39.432.928.432 1.616zm-1.104 0c0-.288-.053-.504-.16-.648a.564.564 0 00-.48-.224c-.213 0-.373.075-.48.224-.107.144-.16.36-.16.648 0 .283.053.499.16.648.107.15.267.224.48.224a.564.564 0 00.48-.224c.107-.149.16-.365.16-.648zm-2.392 0c0-.229-.053-.405-.16-.528a.565.565 0 00-.448-.192.542.542 0 00-.44.192c-.112.123-.168.299-.168.528 0 .23.056.408.168.536a.553.553 0 00.44.184.577.577 0 00.448-.184c.107-.128.16-.306.16-.536zM224 68.456h-1.08l-1.784-1.712a2.9 2.9 0 00-.56-.448.98.98 0 00-.488-.136c-.203 0-.355.07-.456.208-.101.133-.152.328-.152.584 0 .213.04.432.12.656.075.219.197.44.368.664l-1.072.456a2.937 2.937 0 01-.456-.904 3.567 3.567 0 01-.168-1.088c0-.656.141-1.155.424-1.496.283-.347.691-.52 1.224-.52.341 0 .669.08.984.24.309.155.64.413.992.776l1.28 1.312h-.376v-2.536h1.2v3.944zm.088-6.653c0 .694-.253 1.227-.76 1.6-.512.368-1.235.552-2.168.552-.944 0-1.661-.184-2.152-.552-.491-.373-.736-.907-.736-1.6 0-.698.245-1.232.736-1.6.491-.368 1.205-.552 2.144-.552.939 0 1.664.187 2.176.56.507.368.76.899.76 1.592zm-1.176 0c0-.256-.139-.445-.416-.568-.277-.128-.723-.192-1.336-.192-.619 0-1.059.064-1.32.192-.267.123-.4.312-.4.568 0 .256.133.448.4.576.261.123.699.184 1.312.184.619 0 1.067-.061 1.344-.184.277-.128.416-.32.416-.576zM224 58.678h-1.2v-1.264h-3.216v-.672l1.024 1.8h-1.36l-.888-1.552v-1.048h4.44v-1.176h1.2v3.912zm.088-5.98c0 .314-.051.62-.152.92a2.618 2.618 0 01-.432.8l-1.072-.457c.149-.192.261-.397.336-.616a2.01 2.01 0 00.112-.656c0-.405-.123-.709-.368-.912-.251-.202-.624-.304-1.12-.304h-.416v-.128c.224.048.419.139.584.272.165.128.291.288.376.48.085.192.128.408.128.648 0 .304-.077.582-.232.832-.16.251-.379.448-.656.592a2.05 2.05 0 01-.944.216c-.384 0-.723-.082-1.016-.248a1.778 1.778 0 01-.688-.688 2.008 2.008 0 01-.256-1.016c0-.746.248-1.322.744-1.728.496-.405 1.2-.608 2.112-.608.619 0 1.149.104 1.592.312.443.203.781.502 1.016.896.235.39.352.854.352 1.392zm-3.144-.345a.675.675 0 00-.096-.368.647.647 0 00-.272-.248.899.899 0 00-.408-.088.899.899 0 00-.408.088.647.647 0 00-.272.248.675.675 0 00-.096.368c0 .139.032.262.096.368a.667.667 0 00.272.24.9.9 0 00.408.088.9.9 0 00.408-.088.667.667 0 00.272-.24.702.702 0 00.096-.368zM298 68.456h-1.08l-1.784-1.712a2.9 2.9 0 00-.56-.448.98.98 0 00-.488-.136c-.203 0-.355.07-.456.208-.101.133-.152.328-.152.584 0 .213.04.432.12.656.075.219.197.44.368.664l-1.072.456a2.937 2.937 0 01-.456-.904 3.567 3.567 0 01-.168-1.088c0-.656.141-1.155.424-1.496.283-.347.691-.52 1.224-.52.341 0 .669.08.984.24.309.155.64.413.992.776l1.28 1.312h-.376v-2.536h1.2v3.944zm.088-6.653c0 .694-.253 1.227-.76 1.6-.512.368-1.235.552-2.168.552-.944 0-1.661-.184-2.152-.552-.491-.373-.736-.907-.736-1.6 0-.698.245-1.232.736-1.6.491-.368 1.205-.552 2.144-.552.939 0 1.664.187 2.176.56.507.368.76.899.76 1.592zm-1.176 0c0-.256-.139-.445-.416-.568-.277-.128-.723-.192-1.336-.192-.619 0-1.059.064-1.32.192-.267.123-.4.312-.4.568 0 .256.133.448.4.576.261.123.699.184 1.312.184.619 0 1.067-.061 1.344-.184.277-.128.416-.32.416-.576zm1.088-2.94h-1.08l-1.784-1.713a2.9 2.9 0 00-.56-.448.981.981 0 00-.488-.136c-.203 0-.355.07-.456.208-.101.134-.152.328-.152.584 0 .214.04.432.12.656.075.219.197.44.368.664l-1.072.456a2.936 2.936 0 01-.456-.904 3.567 3.567 0 01-.168-1.088c0-.656.141-1.154.424-1.496.283-.346.691-.52 1.224-.52.341 0 .669.08.984.24.309.155.64.414.992.776l1.28 1.312h-.376v-2.536h1.2v3.944zm.088-6.654c0 .694-.253 1.227-.76 1.6-.512.368-1.235.552-2.168.552-.944 0-1.661-.184-2.152-.552-.491-.373-.736-.906-.736-1.6 0-.698.245-1.232.736-1.6.491-.368 1.205-.552 2.144-.552.939 0 1.664.187 2.176.56.507.368.76.899.76 1.592zm-1.176 0c0-.256-.139-.445-.416-.568-.277-.128-.723-.192-1.336-.192-.619 0-1.059.064-1.32.192-.267.123-.4.312-.4.568 0 .256.133.448.4.576.261.123.699.184 1.312.184.619 0 1.067-.061 1.344-.184.277-.128.416-.32.416-.576z" fill="#D3D0D0"/><path fill="#EFEFEF" d="M0 88.762h342.459v17.056H0z"/><rect x="41.969" y="88.762" width="30.916" height="17.056" rx="1.218" fill="#7479FF"/><rect x="227.117" y="88.762" width="46.969" height="17.056" rx="1.218" fill="#FF705C"/><rect x="199.173" y="88.762" width="16.647" height="17.056" rx="1.218" fill="#FF705C"/><path stroke="#CCC" stroke-width=".609" d="M41.908 88.762V50.386M128.117 88.762V50.386M227.407 88.762V50.386M300.536 88.762V50.386"/><circle cx="41.835" cy="116.127" r="3" fill="#C4C4C4"/><circle cx="128.044" cy="116.127" r="3" fill="#C4C4C4"/><circle cx="227.928" cy="116.127" r="3" fill="#C4C4C4"/><circle cx="300.462" cy="116.127" r="3" fill="#C4C4C4"/></g><defs><linearGradient id="paint0_linear_616_1644" x1="34.36" y1="0" x2="311.493" y2="179.782" gradientUnits="userSpaceOnUse"><stop stop-color="#F7F7F7"/><stop offset="1" stop-color="#F8F9FE"/></linearGradient></defs></svg>