<svg width="331" height="176" fill="none" xmlns="http://www.w3.org/2000/svg"><mask id="a" style="mask-type:alpha" maskUnits="userSpaceOnUse" x="0" y="0" width="331" height="176"><path d="M0 8a8 8 0 018-8h314.586a8 8 0 018 8v167.614H0V8z" fill="#F4F4F4"/></mask><g mask="url(#a)"><path fill="url(#paint0_linear_616_1702)" d="M-4.99 0h339.12v176H-4.99z"/><path d="M240.147-1.161H136.415c-.703 0-1.274.57-1.274 1.274v29.293c0 .704.571 1.274 1.274 1.274h103.732c.703 0 1.274-.57 1.274-1.274V.113c0-.704-.571-1.274-1.274-1.274zM240.147 83.077H136.415c-.703 0-1.274.57-1.274 1.274v29.293c0 .704.571 1.274 1.274 1.274h103.732c.703 0 1.274-.57 1.274-1.274V84.351c0-.704-.571-1.274-1.274-1.274zM114.46 159.87H10.729c-.704 0-1.275.571-1.275 1.275v29.293c0 .703.57 1.274 1.274 1.274H114.46c.703 0 1.274-.571 1.274-1.274v-29.293c0-.704-.571-1.275-1.274-1.275zM331.76-1.21h-28.873c-.704 0-1.274.571-1.274 1.275v29.293c0 .704.57 1.274 1.274 1.274h28.873c.704 0 1.275-.57 1.275-1.274V.065c0-.704-.571-1.274-1.275-1.274z" fill="#EFEFEF"/><rect x="306.196" y="12.191" width="7.447" height="4.064" rx="1.161" fill="#F8F8F9"/><rect x="315.361" y="12.191" width="13.176" height="4.064" rx="1.161" fill="#F8F8F9"/><path d="M77.41 83.116H48.538c-.703 0-1.274.57-1.274 1.274v29.293c0 .703.57 1.274 1.274 1.274h28.874c.703 0 1.274-.571 1.274-1.274V84.39c0-.704-.57-1.274-1.274-1.274z" fill="#EFEFEF"/><rect x="52.992" y="96.945" width="20.05" height="4.064" rx="1.161" fill="#F8F8F9"/><path d="M186.584 158.036H157.71c-.704 0-1.274.571-1.274 1.275v29.293c0 .703.57 1.274 1.274 1.274h28.874c.703 0 1.274-.571 1.274-1.274v-29.293c0-.704-.571-1.275-1.274-1.275z" fill="#EFEFEF"/><rect x="170.26" y="12.771" width="36.043" height="3.746" rx="1.161" fill="#F8F8F9"/><rect x="172.146" y="96.945" width="11.457" height="4.064" rx="1.161" fill="#F8F8F9"/><rect x="185.895" y="96.945" width="20.05" height="4.064" rx="1.161" fill="#F8F8F9"/><rect x="46.421" y="173.918" width="10.166" height="3.746" rx="1.873" fill="#F8F8F9"/><rect x="60.284" y="173.918" width="21.256" height="3.746" rx="1.873" fill="#F8F8F9"/><rect x="161.942" y="172.045" width="21.256" height="3.746" rx="1.873" fill="#F8F8F9"/><path d="M109.705 46.553H67.7a4.644 4.644 0 00-4.644 4.644v22.515M139.494 46.44h45.767a4.644 4.644 0 014.644 4.645v22.64M296.457 99.267h15.979a4.644 4.644 0 004.644-4.644V38.894M245.473 99.267h23.487" stroke="#CCC" stroke-width=".581"/><path d="M273.116 99.56c0 5.522 4.477 9.999 10 9.999 5.522 0 10-4.477 10-10 0-5.522-4.478-10-10-10-5.523 0-10 4.478-10 10z" fill="url(#paint1_linear_616_1702)"/><path d="M278.906 103.559c.1.101.22.17.359.208a.886.886 0 00.422 0 .82.82 0 00.365-.202l2.948-2.954 2.954 2.948a.733.733 0 00.353.208.861.861 0 00.416 0 .775.775 0 00.365-.214.707.707 0 00.214-.359.886.886 0 000-.422.716.716 0 00-.208-.359l-2.941-2.954 2.941-2.948c.105-.101.175-.22.208-.36a.86.86 0 000-.415.705.705 0 00-.214-.365.73.73 0 00-.365-.208.777.777 0 00-.416 0 .751.751 0 00-.353.201L283 98.312l-2.948-2.954a.772.772 0 00-.365-.195.8.8 0 00-.422 0 .742.742 0 00-.359.201.759.759 0 00-.208.372.86.86 0 000 .415.748.748 0 00.201.36l2.955 2.948-2.955 2.954c-.1.1-.168.22-.201.359a.886.886 0 000 .422.76.76 0 00.208.365z" fill="#fff"/><path d="M114.152 46.733c0 5.523 4.477 10 10 10s10-4.477 10-10-4.477-10-10-10-10 4.477-10 10z" fill="url(#paint2_linear_616_1702)"/><path fill-rule="evenodd" clip-rule="evenodd" d="M128.726 45.634l-5.232 5.1a.952.952 0 01-1.322 0l-2.898-2.82a.892.892 0 010-1.286l.085-.082a.952.952 0 011.322 0l2.156 2.098 4.482-4.368a.943.943 0 011.322-.01l.085.082a.892.892 0 010 1.286z" fill="#fff"/><path d="M63.056 124.283v32.778M149.928 173.918h-32.346M128.008 98.997H86.42M131.473 14.513H9.454M296.457 14.513h-49.839M309.81 175.791H198.909" stroke="#CCC" stroke-width=".581"/></g><defs><linearGradient id="paint0_linear_616_1702" x1="30.213" y1="0" x2="310.028" y2="185.975" gradientUnits="userSpaceOnUse"><stop stop-color="#F7F7F7"/><stop offset="1" stop-color="#F8F9FE"/></linearGradient><linearGradient id="paint1_linear_616_1702" x1="291.242" y1="99.559" x2="256.126" y2="99.559" gradientUnits="userSpaceOnUse"><stop stop-color="#FF705C"/><stop offset=".39" stop-color="#F98650"/><stop offset="1" stop-color="#EEB138"/></linearGradient><linearGradient id="paint2_linear_616_1702" x1="114.152" y1="46.733" x2="134.152" y2="46.733" gradientUnits="userSpaceOnUse"><stop stop-color="#0087FF"/><stop offset="1" stop-color="#00CDE9"/></linearGradient></defs></svg>